<?xml version="1.0" standalone="yes"?>
<svg xmlns="http://www.w3.org/2000/svg" width="512" height="512">
<path style="fill:#090605; stroke:none;" d="M0 0L0 512L512 512L512 0L0 0z"/>
<path style="fill:#5dc47b; stroke:none;" d="M255 114L257 114C260.492 153.742 310.945 155.198 340 151.282C386.53 145.011 419.716 108.554 438.78 68C444.014 56.8657 453.45 39.6128 452.718 27C452.233 18.659 443.556 17.013 437 15.3734C421.095 11.3963 404.413 8.41684 388 8.01465C347.2 7.01492 310.135 18.5176 281.004 48C269.749 59.3906 257.759 76.3956 257 93L255 93C254.238 76.3204 242.301 59.4405 230.996 48C201.865 18.5176 164.8 7.01492 124 8.01465C107.587 8.41684 90.9046 11.3963 75 15.3734C68.4435 17.013 59.767 18.6589 59.2824 27C58.5338 39.8855 68.2523 57.7064 73.7423 69C93.2201 109.069 125.618 145.031 172 151.282C201.081 155.202 251.505 153.786 255 114z"/>
<path style="fill:#090605; stroke:none;" d="M255 114C252.95 127.678 241.82 139.668 230 146.1C222.261 150.311 214.721 150.981 208.754 158.004C180.469 191.292 158.484 235.915 155 280C168.119 278.928 179.479 272.663 193 275.899C226.794 283.987 254.31 330.571 255 364L257 364C257.69 330.571 285.206 283.987 319 275.899C332.521 272.663 343.881 278.928 357 280C353.516 235.915 331.531 191.292 303.246 158.004C297.359 151.076 289.769 150.04 282 146.019C270.116 139.87 259.028 127.531 257 114L255 114z"/>
<path style="fill:#818101; stroke:none;" d="M120 277C127.862 278.802 146.01 285.615 153.411 279.972C156.447 277.658 156.49 270.474 157.081 267C158.867 256.5 161.644 246.033 165.218 236C176.677 203.825 195.016 179.763 214 152C203.667 152.086 193.393 153.836 183 152.83C179.082 152.451 173.117 149.924 169.465 152.042C161.096 156.895 154.032 173.59 149.756 182C135.059 210.911 121.412 244.112 120 277M298 152C316.163 178.563 335.249 201.929 345.83 233C349.5 243.776 352.795 254.77 354.75 266C355.391 269.679 355.377 277.524 358.589 279.972C365.99 285.615 384.138 278.802 392 277C389.369 243.669 377.267 211.552 362.244 182C357.968 173.59 350.904 156.895 342.535 152.042C338.883 149.924 332.918 152.451 329 152.83C318.607 153.836 308.333 152.086 298 152z"/>
<path style="fill:#d04e62; stroke:none;" d="M209 157L210 158L209 157M302 157L303 158L302 157M318 178L319 179L318 178M370 199L371 200L370 199M345 231L346 232L345 231M164 237L165 238L164 237M347 237L348 238L347 237M161 247L162 248L161 247M350 247L351 248L350 247M122 259L123 260L122 259M158 259L159 260L158 259M353 259L354 260L353 259M389 259L390 260L389 259M255 395L256 395C266.048 435.788 283.33 470.794 323 490.63C412.045 535.152 515.965 460.342 502.718 362C498.595 331.393 482.84 303.243 459 283.615C449.575 275.855 438.599 268.015 426 267.09C406.312 265.646 392.135 279.569 373 280.91C354.835 282.184 338.12 272.203 320 275.465C285.021 281.76 257.277 330.472 257 364L255 364C254.722 330.472 226.979 281.76 192 275.465C173.88 272.203 157.166 282.184 139 280.91C119.54 279.547 105.116 265.012 85 267.174C70.4095 268.741 57.1464 279.117 47 289.015C23.6873 311.755 8.16025 342.929 8.00077 376C7.72356 433.485 43.9869 485.855 101 500.105C167.599 516.75 254.376 470.382 255 395M391 272L392 273L391 272M155 275L156 276L155 275M356 275L357 276L356 275z"/>
</svg>
