<?xml version="1.0" standalone="yes"?>
<svg xmlns="http://www.w3.org/2000/svg" width="512" height="512">
<path style="fill:#080504; stroke:none;" d="M0 0L0 512L512 512L512 0L0 0z"/>
<path style="fill:#e85d71; stroke:none;" d="M8 332C23.6214 332 43.9427 335.788 59 332.721C64.0919 331.685 68.5268 327.363 73 324.862C80.9106 320.439 89.4182 316.9 98 314.004C128.953 303.559 163.466 299.391 196 299.004C225.273 298.656 255.134 299.218 284 304.424C302.709 307.799 321.235 316.994 340 310L277 359C282.806 365.773 291.542 366.997 300 367L344 367C354.118 367 364.115 367.656 372.999 361.896C387.415 352.55 388.271 337.004 392.885 322C397.307 307.622 404.414 293.072 413.378 281C428.015 261.288 446.439 245.126 468 233.312C477.791 227.947 498.483 224.11 502.852 212.999C509.56 195.939 484.542 189.234 473 185.054C440.612 173.325 392.29 168.473 359 179L359 85C359 69.7506 361.424 53.0843 351.957 40.0146C338.11 20.8985 301.614 16.6534 280 13.0803C236.223 5.84314 190.917 6.58679 147 11.8449C116.744 15.4673 85.1512 23.1278 60 41C60 31.5716 59.9355 22.702 52.6744 15.6188C38.7625 2.04788 14.1124 7.86026 8.92747 27C6.18191 37.1351 8 49.5564 8 60L8 124L8 332z"/>
<path style="fill:#a53d51; stroke:none;" d="M38 8L39 9L38 8z"/>
<path style="fill:#ff0101; stroke:none;" d="M149 11L150 12L149 11M51 14L52 15L51 14z"/>
<path style="fill:#a53d51; stroke:none;" d="M52 15L53 16L52 15z"/>
<path style="fill:#ff0101; stroke:none;" d="M56 20L57 21L56 20M89 25L90 26L89 25M62 39L63 40L62 39M353 42L354 43L353 42z"/>
<path style="fill:#a53d51; stroke:none;" d="M422 175L423 176L422 175M373 176L374 177L373 176M433 176L434 177L433 176M359 178L360 179L359 178M446 178L447 179L446 178M456 180L457 181L456 180M460 181L461 182L460 181z"/>
<path style="fill:#ff0101; stroke:none;" d="M464 182L465 183L464 182z"/>
<path style="fill:#a53d51; stroke:none;" d="M476 186L477 187L476 186M479 187L480 188L479 187z"/>
<path style="fill:#ff0101; stroke:none;" d="M484 189L485 190L484 189z"/>
<path style="fill:#a53d51; stroke:none;" d="M486 190L487 191L486 190M488 191L489 192L488 191M496 195L497 196L496 195M499 197L500 198L499 197M503 211L504 212L503 211M465 234L466 235L465 234M458 238L459 239L458 238z"/>
<path style="fill:#ff0101; stroke:none;" d="M448 245L449 246L448 245z"/>
<path style="fill:#a53d51; stroke:none;" d="M445 247L446 248L445 247M434 256L435 257L434 256M431 259L432 260L431 259M424 266L425 267L424 266z"/>
<path style="fill:#ff0101; stroke:none;" d="M413 280L414 281L413 280z"/>
<path style="fill:#a53d51; stroke:none;" d="M410 284L411 285L410 284M407 289L408 290L407 289M404 294L405 295L404 294M403 296L404 297L403 296M264 302C264 322.88 260.865 343.417 276 360L277 360C296.816 344.272 324.103 329.653 340 310C314.264 316.88 290.159 302.072 264 302M400 302L401 303L400 302z"/>
<path style="fill:#ff0101; stroke:none;" d="M121 307L122 308L121 307z"/>
<path style="fill:#a53d51; stroke:none;" d="M340.667 309.333L341.333 309.667L340.667 309.333M393 319L394 320L393 319z"/>
<path style="fill:#ff0101; stroke:none;" d="M391 326L392 327L391 326z"/>
<path style="fill:#a53d51; stroke:none;" d="M8 332L8 333L51 333C39.7744 328.29 20.2189 332 8 332z"/>
<path style="fill:#816b16; stroke:none;" d="M8 333L8 433C8 448.745 5.71337 466.476 8.32562 482C11.2358 499.294 41.6675 515.149 52 495L54 496L58 490L60 333L8 333z"/>
<path style="fill:#ff0101; stroke:none;" d="M264 338L265 339L264 338z"/>
<path style="fill:#a53d51; stroke:none;" d="M388 338L389 339L388 338z"/>
<path style="fill:#e85d71; stroke:none;" d="M265 342L266 343L265 342z"/>
<path style="fill:#a53d51; stroke:none;" d="M386 345L387 346L386 345z"/>
<path style="fill:#e85d71; stroke:none;" d="M269 351L270 352L269 351z"/>
<path style="fill:#a53d51; stroke:none;" d="M378 357L379 358L378 357z"/>
<path style="fill:#ff0101; stroke:none;" d="M377 358L378 359L377 358z"/>
<path style="fill:#a53d51; stroke:none;" d="M373 361L374 362L373 361M282 363L283 364L282 363z"/>
<path style="fill:#ff0101; stroke:none;" d="M284 364L285 365L284 364z"/>
<path style="fill:#a53d51; stroke:none;" d="M365 365L366 366L365 365M361 366L362 367L361 366M59.3333 479.667L59.6667 480.333L59.3333 479.667M9 486L10 487L9 486M58 486L59 487L58 486M57 488L58 489L57 488M11 490L12 491L11 490M56 490L57 491L56 490M12 492L13 493L12 492M13 493L14 494L13 493M14 494L15 495L14 494M15 495L16 496L15 495M52.3333 495.667L52.6667 496.333L52.3333 495.667M16 496L17 497L16 496M17 497L18 498L17 497M19 499L20 500L19 499M48 499L49 500L48 499M43.6667 501.333L44.3333 501.667L43.6667 501.333M25 502L26 503L25 502M27 502L28 503L27 502M41.6667 502.333L42.3333 502.667L41.6667 502.333M31 503L32 504L31 503M35 503L36 504L35 503M38 503L39 504L38 503z"/>
</svg>
