<?xml version="1.0" standalone="yes"?>
<svg xmlns="http://www.w3.org/2000/svg" width="512" height="512">
<path style="fill:#010101; stroke:none;" d="M0 0L0 512L512 512L512 0L0 0z"/>
<path style="fill:#b6d2e7; stroke:none;" d="M256 8.46451C237.804 11.7463 222.463 34.5367 210 47L176 81C169.568 87.4317 161.509 93.7391 157.378 102C153.195 110.367 154.978 121.054 155.83 130C157.321 145.658 155.555 163.884 160.044 179C163.139 189.422 172.587 196.587 180 204C194.196 218.196 208.319 232.413 223 246.09C247.642 269.044 270.203 294.203 294 318C304.018 328.018 314.511 342.5 327 349.352C335.443 353.984 345.65 353.434 355 354.09C370.602 355.183 388.45 359.403 404 356.671C412.81 355.124 418.996 348.004 425 342L459 308C472.1 294.9 493.571 279.95 501.446 263C506.549 252.017 502.897 238.524 502.09 227C501.14 213.46 502.728 195.54 497.095 183C491.507 170.56 477.493 160.493 468 151C446.488 129.488 424.516 108.516 403 87C387.171 71.1705 371.844 54.8442 356 39C348.3 31.2996 340.629 21.2133 331 15.9051C317.616 8.52686 297.822 11.2408 283 9.83023C274.305 9.00278 264.688 6.89755 256 8.46451z"/>
<path style="fill:#ddecfd; stroke:none;" d="M280 9L281 10L280 9M325 13L326 14L325 13M333 17L334 18L333 17z"/>
<path style="fill:#6d4733; stroke:none;" d="M414 51.5579C409.561 52.7223 406.199 55.9 403 59.0146C399.587 62.3371 391.515 67.9718 390.921 73C390.499 76.58 394.789 79.7732 397.001 82L419 104C422.935 107.935 433.771 122.97 440 120.824C443.86 119.495 447.207 114.806 449.999 112C452.816 109.17 455.698 106.362 457.891 103C468.183 87.2208 452.161 75.1609 442 65C433.903 56.9034 426.608 48.2501 414 51.5579z"/>
<path style="fill:#ddecfd; stroke:none;" d="M372 118.653C351.434 125.103 362.436 156.797 383 150.347C403.538 143.906 392.718 112.155 372 118.653M158 166L159 167L158 166M325 166.533C304.094 171.606 312.2 204.554 333 199.068C354.309 193.447 346.493 161.317 325 166.533M500 205L501 206L500 205M277 214.534C255.59 219.635 263.937 252.552 285 247.467C306.335 242.315 298.009 209.529 277 214.534M501 218L502 219L501 218z"/>
<path style="fill:#6d4733; stroke:none;" d="M219 244.461C213.277 245.758 207.02 254.98 203 259L166 296L60 402C44.5729 417.427 21.3062 433.987 10.5332 453C1.58355 468.795 19.1617 481.162 29 491C35.4231 497.423 41.992 504.954 52 503.811C60.3199 502.861 66.4419 495.556 72 490L107 455L220 342L253 309C257.307 304.693 264.645 299.618 267.168 294C269.364 289.11 261.949 283.95 259 281L231 253C228.287 250.288 223.475 243.448 219 244.461z"/>
<path style="fill:#818101; stroke:none;" d="M220 243L221 244L220 243z"/>
<path style="fill:#ddecfd; stroke:none;" d="M498 267L499 268L498 267z"/>
<path style="fill:#818101; stroke:none;" d="M268 291L269 292L268 291z"/>
<path style="fill:#ddecfd; stroke:none;" d="M329 350L330 351L329 350M346 353L347 354L346 353M385 356L386 357L385 356z"/>
<path style="fill:#818101; stroke:none;" d="M9 469L10 470L9 469M61 499L62 500L61 499z"/>
</svg>
