<?xml version="1.0" standalone="yes"?>
<svg xmlns="http://www.w3.org/2000/svg" width="512" height="512">
<path style="fill:#1c120d; stroke:none;" d="M0 0L0 512L512 512L512 0L0 0z"/>
<path style="fill:#6de18f; stroke:none;" d="M179 59C171.584 54.6718 161.889 48.3627 153.004 52.0092C142.447 56.342 145 69.864 145 79C145 86.2983 143.758 94.9319 145.789 102C149.8 115.955 165.507 122.988 179 119C179.782 128.907 180.783 138.236 185.877 147C203.568 177.442 248.616 183.541 280 176.349C308.511 169.815 332.74 151.357 333 120C343.481 120 354.256 119.879 361.471 110.96C370.36 99.9708 367.005 82.2265 367 69C366.997 62.4072 366.619 55.8759 359.985 52.4568C351.005 47.829 340.609 54.5592 333 59C332.831 38.5707 316.051 23.107 298 16.0617C269.729 5.02747 235.372 4.48083 208 18.7847C192.456 26.9077 179.152 40.6454 179 59z"/>
<path style="fill:#5bc178; stroke:none;" d="M218 14L219 15L218 14M293 14L294 15L293 14M219.015 51.7423C212 54.509 211.214 65.2936 219.043 67.5663C223.99 69.0024 229.898 67.7401 235 68.0895C248.706 69.0281 262.289 69.4746 276 68.1698C281.561 67.6406 289.821 69.7685 294.786 66.821C301.987 62.5467 298.255 52.5576 290.999 51.2284C275.377 48.3665 256.895 51 241 51C234.472 51 225.156 49.3206 219.015 51.7423z"/>
<path style="fill:#f0fbf2; stroke:none;" d="M223 68C231.048 101.88 280.956 101.868 289 68L273 68C271.027 89.9046 240.973 89.9047 239 68L223 68z"/>
<path style="fill:#818101; stroke:none;" d="M239 69C243.311 89.5443 268.689 89.5443 273 69L239 69z"/>
<path style="fill:#5bc178; stroke:none;" d="M239.333 71.6667L239.667 72.3333L239.333 71.6667M272.333 71.6667L272.667 72.3333L272.333 71.6667z"/>
<path style="fill:#6de18f; stroke:none;" d="M240 75L241 76L240 75M271 75L272 76L271 75z"/>
<path style="fill:#5bc178; stroke:none;" d="M242 78L243 79L242 78M269 78L270 79L269 78M243 79L244 80L243 79M268 79L269 80L268 79M245 81L246 82L245 81M266 81L267 82L266 81z"/>
<path style="fill:#6de18f; stroke:none;" d="M246 82L247 83L246 82M265 82L266 83L265 82z"/>
<path style="fill:#5bc178; stroke:none;" d="M248 83L249 84L248 83M263 83L264 84L263 83z"/>
<path style="fill:#6de18f; stroke:none;" d="M250 84L251 85L250 84z"/>
<path style="fill:#5bc178; stroke:none;" d="M251 84L252 85L251 84M260 84L261 85L260 84z"/>
<path style="fill:#6de18f; stroke:none;" d="M261 84L262 85L261 84z"/>
<path style="fill:#5bc178; stroke:none;" d="M178 119L179 120L178 119M249 119.424C238.604 120.79 226.545 121.294 218.044 128.39C212.964 132.631 211.133 140.173 218.044 143.82C224.433 147.192 231.848 140.423 238 138.899C248.016 136.417 260.897 135.449 271 137.9C277.345 139.439 285.472 146.12 291.996 144.667C303.261 142.157 297.648 130.245 290.999 126.363C279.514 119.658 262.018 117.714 249 119.424z"/>
<path style="fill:#818101; stroke:none;" d="M393 289C373.702 293.595 349.833 290 330 290C277.159 290 216.078 298.538 187.809 242C178.759 223.901 179 204.687 179 185L179 120C159.532 121.59 143.413 134.15 138.04 153C133.6 168.576 139.452 186.141 136.671 202C134.213 216.018 126.54 229.574 123.804 244C118.65 271.172 119 299.444 119 327L119 367C119 372.076 117.715 379.335 120.179 383.956C122.497 388.301 127.553 389.825 131.985 387.91C138.528 385.084 145.105 374.22 152.999 375.542C165.282 377.598 166.821 400.782 180 400.782C190.097 400.782 195.554 381.723 205.999 385.503C216.826 389.421 217.699 406.615 229.001 409.562C241.483 412.818 245.054 393.296 256 393.296C265.974 393.296 269.63 409.337 280 409.847C293.291 410.501 294.914 389.515 306.001 385.503C316.907 381.556 322.023 402.047 332.999 400.728C344.412 399.355 347.28 380.889 357.015 376.194C368.389 370.709 381.012 399.617 391.258 384.891C395.561 378.706 393 365.261 393 358C393 335.137 391.648 311.806 393 289z"/>
<path style="fill:#5bc178; stroke:none;" d="M333 120C331.877 174.379 262.652 188.083 221 172.946C198.871 164.904 180.016 147.86 180 123L179 123C179 139.27 179.997 155.318 184.721 171C187.726 180.975 192.589 190.355 198.355 199C240.324 261.923 322.913 247 388 247C387.862 230.35 377.59 217.591 375.213 202C370.866 173.484 383.989 136.947 348 123.696C343.096 121.89 338.242 120.24 333 120z"/>
<path style="fill:#6de18f; stroke:none;" d="M355 127L356 128L355 127M119 342C119 310.292 117.795 278.365 123.081 247C125.568 232.245 133.604 218.318 135.787 204C137.934 189.915 134.451 175.144 136.289 161C137.455 152.033 141.993 145.262 145 137C129.375 134.099 113.905 139.497 105.905 154C103.082 159.118 103.484 166.324 99.6829 170.711C90.527 181.276 81.5971 188.633 75.8727 202C62.9308 232.221 66.5181 270.585 72.8002 302C75.0988 313.495 76.6768 327.664 86.0154 335.786C95.0455 343.64 107.921 342 119 342M366 137C369.25 143.962 373.576 150.207 374.7 158C376.83 172.774 372.966 188.258 375.213 203C376.21 209.539 380.478 215.766 382.655 222C386.047 231.714 387.812 241.922 389.69 252C395.157 281.347 393 312.279 393 342C403.551 342 416.128 343.656 424.985 336.606C435.13 328.532 436.816 313.922 439.2 302C445.632 269.833 448.768 231.856 435.573 201C430 187.971 421.041 181.178 412.317 170.826C408.541 166.346 408.945 159.168 406.095 154C397.523 138.459 382.233 134.949 366 137z"/>
<path style="fill:#5bc178; stroke:none;" d="M145 137L146 138L145 137M144 139L145 140L144 139M143 140L144 141L143 140M142 142L143 143L142 142M139 148L140 149L139 148z"/>
<path style="fill:#1c120d; stroke:none;" d="M179 148C179 174.69 174.877 205.254 183.029 231C192.173 259.881 217.259 282.565 247 288.551C265.254 292.225 285.434 290 304 290L392 290C392 279.916 390.878 270.027 390 260C389.74 257.037 389.973 251.052 387.397 249.028C384.935 247.093 379.92 248 377 248L350 248C318.791 248 283.842 252.406 254 241.564C225.556 231.23 201.198 209.901 188.862 182C184.037 171.088 183.573 158.601 179 148z"/>
<path style="fill:#5bc178; stroke:none;" d="M138.333 150.667L138.667 151.333L138.333 150.667z"/>
<path style="fill:#818101; stroke:none;" d="M180 151L180 155L181 155L180 151z"/>
<path style="fill:#5bc178; stroke:none;" d="M137 154L138 155L137 154z"/>
<path style="fill:#818101; stroke:none;" d="M181.333 158.667L181.667 159.333L181.333 158.667z"/>
<path style="fill:#5bc178; stroke:none;" d="M136 159L136 204L137 204C137 191.258 140.91 170.701 136 159z"/>
<path style="fill:#818101; stroke:none;" d="M182.333 162.667L182.667 163.333L182.333 162.667M183.333 166.667L183.667 167.333L183.333 166.667M184 170L185 171L184 170z"/>
<path style="fill:#5bc178; stroke:none;" d="M413 172L414 173L413 172z"/>
<path style="fill:#818101; stroke:none;" d="M185 173L186 174L185 173M186 176L187 177L186 176M187 178L188 179L187 178z"/>
<path style="fill:#5bc178; stroke:none;" d="M420 178L421 179L420 178z"/>
<path style="fill:#818101; stroke:none;" d="M188 181L189 182L188 181M189 183L190 184L189 183M190 185L191 186L190 185M191 187L192 188L191 187M192 189L193 190L192 189M193 191L194 192L193 191M194 192L195 193L194 192M195 194L196 195L195 194M196 196L197 197L196 196M197 197L198 198L197 197M198 199L199 200L198 199M199 200L200 201L199 200M201 203L202 204L201 203z"/>
<path style="fill:#5bc178; stroke:none;" d="M436 203L437 204L436 203z"/>
<path style="fill:#818101; stroke:none;" d="M202 204L203 205L202 204z"/>
<path style="fill:#5bc178; stroke:none;" d="M135 206L136 207L135 206z"/>
<path style="fill:#818101; stroke:none;" d="M204 207L205 208L204 207z"/>
<path style="fill:#5bc178; stroke:none;" d="M134 208L135 209L134 208z"/>
<path style="fill:#818101; stroke:none;" d="M205 208L206 209L205 208M206 209L207 210L206 209z"/>
<path style="fill:#5bc178; stroke:none;" d="M133 210L134 211L133 210z"/>
<path style="fill:#818101; stroke:none;" d="M207 210L208 211L207 210M208 211L209 212L208 211z"/>
<path style="fill:#5bc178; stroke:none;" d="M132 212L133 213L132 212M130 217L131 218L130 217z"/>
<path style="fill:#818101; stroke:none;" d="M214 217L215 218L214 217M215 218L216 219L215 218M216 219L217 220L216 219z"/>
<path style="fill:#5bc178; stroke:none;" d="M129 220L130 221L129 220z"/>
<path style="fill:#818101; stroke:none;" d="M217 220L218 221L217 220M218 221L219 222L218 221M219 222L220 223L219 222z"/>
<path style="fill:#5bc178; stroke:none;" d="M128 223L129 224L128 223z"/>
<path style="fill:#818101; stroke:none;" d="M221 223L222 224L221 223M222 224L223 225L222 224M223 225L224 226L223 225z"/>
<path style="fill:#5bc178; stroke:none;" d="M127 227L128 228L127 227z"/>
<path style="fill:#818101; stroke:none;" d="M226 227L227 228L226 227M227 228L228 229L227 228M229 229L230 230L229 229z"/>
<path style="fill:#5bc178; stroke:none;" d="M126.333 230.667L126.667 231.333L126.333 230.667z"/>
<path style="fill:#818101; stroke:none;" d="M232 231L233 232L232 231M234 232L235 233L234 232M236 233L237 234L236 233z"/>
<path style="fill:#5bc178; stroke:none;" d="M125.333 234.667L125.667 235.333L125.333 234.667z"/>
<path style="fill:#818101; stroke:none;" d="M237 234L238 235L237 234M239 235L240 236L239 235M241 236L242 237L241 236M243.667 237.333L244.333 237.667L243.667 237.333M246 238L247 239L246 238z"/>
<path style="fill:#5bc178; stroke:none;" d="M124.333 239.667L124.667 240.333L124.333 239.667z"/>
<path style="fill:#818101; stroke:none;" d="M248.667 239.333L249.333 239.667L248.667 239.333M251 240L252 241L251 240M253.667 241.333L254.333 241.667L253.667 241.333M256.667 242.333L257.333 242.667L256.667 242.333M260.667 243.333L261.333 243.667L260.667 243.333z"/>
<path style="fill:#5bc178; stroke:none;" d="M123.333 244.667L123.667 245.333L123.333 244.667z"/>
<path style="fill:#818101; stroke:none;" d="M263 244L263 245L266 245L263 244M267 245L267 246L270 246L267 245M273 246L273 247L277 247L273 246M282 247L282 248L352 248L389 249C384.75 244.136 368.287 247 362 247L282 247z"/>
<path style="fill:#5bc178; stroke:none;" d="M122 250L122 253L123 253L122 250M389 250L389 253L390 253L389 250z"/>
<path style="fill:#818101; stroke:none;" d="M389 253L389 256L390 256L389 253z"/>
<path style="fill:#5bc178; stroke:none;" d="M121 257L121 260L122 260L121 257M390 257L390 260L391 260L390 257z"/>
<path style="fill:#818101; stroke:none;" d="M390 260L390 265L391 265L390 260z"/>
<path style="fill:#5bc178; stroke:none;" d="M120 267L120 271L121 271L120 267M391 267L391 270L392 270L391 267z"/>
<path style="fill:#818101; stroke:none;" d="M391 270L391 277L392 277L391 270z"/>
<path style="fill:#5bc178; stroke:none;" d="M392 280L392 289L393 289L392 280M119 282L119 295L120 295L119 282M392.333 291.667L392.667 292.333L392.333 291.667M430 330L431 331L430 330M149 375L150 376L149 375z"/>
<path style="fill:#6de18f; stroke:none;" d="M141 465C130.242 465.089 112.58 464.42 103.001 469.569C92.2746 475.334 89.7663 491.183 99.1883 499.468C105.568 505.077 114.136 504 122 504L169 504C178.298 504 187.488 503.473 193.298 494.985C202.881 480.985 193.233 460.393 198.877 445C203.72 431.79 221.252 414.308 217.972 399C217.407 396.36 215.467 394.095 213.869 392.004C212.416 390.104 210.929 388.085 208.91 386.742C195.804 378.026 189.536 406.133 177.004 399.968C167.306 395.198 164.275 377.142 152.985 375.488C141.075 373.744 136 387.002 136 396C136 419.333 140.007 441.861 141 465z"/>
<path style="fill:#5bc178; stroke:none;" d="M154 375L155 376L154 375M357 375L358 376L357 375z"/>
<path style="fill:#6de18f; stroke:none;" d="M371 465C372.008 441.533 376.009 418.659 376 395C375.997 386.292 370.069 373.869 359.015 375.488C347.769 377.136 344.715 395.188 334.996 399.968C322.464 406.133 316.196 378.026 303.09 386.742C301.071 388.085 299.584 390.104 298.131 392.004C296.533 394.095 294.593 396.36 294.028 399C290.772 414.196 308.302 431.849 313.123 445C318.767 460.393 309.119 480.985 318.702 494.985C324.512 503.473 333.702 504 343 504L390 504C397.864 504 406.432 505.077 412.812 499.468C422.161 491.247 419.795 475.134 408.999 469.442C399.32 464.339 381.828 465.09 371 465z"/>
<path style="fill:#5bc178; stroke:none;" d="M362 375L363 376L362 375M156 376L157 377L156 376M355 376L356 377L355 376M366 377L367 378L366 377M144 378L145 379L144 378M158 378L159 379L158 378M353 378L354 379L353 378M367 378L368 379L367 378M159 379L160 380L159 379M352 379L353 380L352 379M370 380L371 381L370 380M140 381L141 382L140 381M371 381L372 382L371 381M137 383L138 384L137 383M162 383L163 384L162 383M349 383L350 384L349 383M374 383L375 384L374 383M203.667 384.333L204.333 384.667L203.667 384.333M307.667 384.333L308.333 384.667L307.667 384.333M200 385L201 386L200 385M207 385L208 386L207 385M304 385L305 386L304 385M311 385L312 386L311 385M375 385L376 386L375 385M198 386L199 387L198 386M313 386L314 387L313 386M165 387L166 388L165 387M197 387L198 388L197 387M314 387L315 388L314 387M346 387L347 388L346 387M196 388L197 389L196 388M315 388L316 389L315 388M195 389L196 390L195 389M316 389L317 390L316 389M194 390L195 391L194 390M212 390L213 391L212 390M299 390L300 391L299 390M317 390L318 391L317 390M344 390L345 391L344 390M168 391L169 392L168 391M193 391L194 392L193 391M318 391L319 392L318 391M343 391L344 392L343 391M192 392L193 393L192 392M319 392L320 393L319 392M191 393L192 394L191 393M320 393L321 394L320 393M190 394L191 395L190 394M215 394L216 395L215 394M296 394L297 395L296 394M321 394L322 395L321 394M171 395L172 396L171 395M189 395L190 396L189 395M322 395L323 396L322 395M340 395L341 396L340 395M188 396L189 397L188 396M323 396L324 397L323 396M187 397L188 398L187 397M324 397L325 398L324 397M186 398L187 399L186 398M325 398L326 399L325 398M185 399L186 400L185 399M326 399L327 400L326 399M176 400L177 401L176 400M183 400L184 401L183 400M328 400L329 401L328 400M335 400L336 401L335 400M296 410L297 411L296 410M375 420L376 421L375 420M101 470L102 471L101 470M187 500L188 501L187 500M324 500L325 501L324 500z"/>
</svg>
