<?xml version="1.0" standalone="yes"?>
<svg xmlns="http://www.w3.org/2000/svg" width="512" height="512">
<path style="fill:#010101; stroke:none;" d="M0 0L0 512L512 512L512 0L0 0z"/>
<path style="fill:#79383c; stroke:none;" d="M221 51L291 51C291 40.1404 294.226 22.9952 286.606 14.1049C277.88 3.92532 248.243 6.17719 236 8.3287C231.574 9.10657 227.337 11.3838 224.652 15.0432C217.985 24.1316 221 40.3649 221 51z"/>
<path style="fill:#dcecfc; stroke:none;" d="M204 86C204 95.1373 206.813 109.94 201.991 117.999C194.229 130.973 176.813 128 164 128C136.243 128 93.0468 119.053 75.1049 146C60.6956 167.642 68 206.03 68 231L68 396C68 420.215 62.663 451.85 70.0285 475C80.9886 509.449 119.59 504 148 504L368 504C396.135 504 432.067 508.037 442.279 474C449.183 450.987 444 419.975 444 396L444 231C444 206.03 451.304 167.642 436.895 146C418.942 119.035 375.793 128 348 128C335.187 128 317.771 130.973 310.009 117.999C305.187 109.94 308 95.1373 308 86C315.987 86 325.801 87.6 332.996 83.4668C343.409 77.4854 345.258 61.2744 334.907 54.1335C325.72 47.7964 308.674 50.9493 298 51.0008C274.079 51.1161 250.002 53.0117 226 51.9606C212.75 51.3804 194.878 47.6701 182 51.652C168.74 55.7519 166.318 74.15 177.093 82.3511C184.369 87.8886 195.438 86 204 86z"/>
<path style="fill:#d39fb0; stroke:none;" d="M221 51L221 52L291 52L269 51L221 51M329 51L330 52L329 51M175 55L176 56L175 55M170 71L171 72L170 71M173 78L174 79L173 78M334 82L335 83L334 82M115 162L115 163L118 163L115 162z"/>
<path style="fill:#bd475b; stroke:none;" d="M118 162.44C94.2462 166.295 103 210.239 103 228L103 398L103 442C103 448.479 101.693 456.395 105.653 461.985C110.912 469.408 118.866 469 127 469L176 469L326 469L373 469C380.618 469 389.566 470.274 397 468.467C402.882 467.037 407.834 462.038 408.786 456C411.491 438.851 409 419.371 409 402L409 231L409 188C409 181.225 409.95 173.821 405.362 168.185C400.193 161.835 391.44 162 384 162L334 162L190 162C166.818 162 140.873 158.728 118 162.44z"/>
<path style="fill:#d39fb0; stroke:none;" d="M394 162L394 163L397 163L394 162M112 163L113 164L112 163M399 163L400 164L399 163M110 164L111 165L110 164M401 164L402 165L401 164M109 165L110 166L109 165M402 165L403 166L402 165M105 169L106 170L105 169M406 169L407 170L406 169M407 171L408 172L407 171M103 173L104 174L103 173M408 173L409 174L408 173M102 176L102 456L103 456L103 258L103 201L102 176M409 176L409 456L410 456L410 258L410 201L409 176z"/>
<path style="fill:#79383c; stroke:none;" d="M207 307.518C173.461 314.673 189.854 355.924 220 349.482C252.907 342.451 236.86 301.147 207 307.518M293 307.465C277.657 310.232 266.074 327.202 277.39 340.96C283.936 348.918 295.188 351.383 305 349.532C318.468 346.992 329.956 332.253 321.992 319C316.094 309.188 303.824 305.512 293 307.465M255 375L257 375C259.433 380.638 263.34 388.618 269.04 391.539C274.323 394.248 280.991 391.034 281.728 384.999C282.747 376.65 268.712 358.715 262.816 353.228C250.77 342.019 239.911 366.072 234.667 374C231.89 378.199 228.658 382.833 231.319 387.945C238.809 402.335 252.282 382.172 255 375z"/>
<path style="fill:#d39fb0; stroke:none;" d="M103 458L104 459L103 458M408 458L409 459L408 458M104 460L105 461L104 460M407 460L408 461L407 460M106 463L107 464L106 463M405 463L406 464L405 463M107 464L108 465L107 464M404 464L405 465L404 464M108 465L109 466L108 465M403 465L404 466L403 465M111 467L112 468L111 467M400 467L401 468L400 467M114 468L115 469L114 468M397 468L398 469L397 468M118 469L118 470L394 470L369 469L313 469L118 469z"/>
</svg>
