<?xml version="1.0" standalone="yes"?>
<svg xmlns="http://www.w3.org/2000/svg" width="512" height="512">
<path style="fill:#010101; stroke:none;" d="M0 0L0 512L512 512L512 0L0 0z"/>
<path style="fill:#6d4733; stroke:none;" d="M300 8.51852C287.728 11.1764 278.452 24.5474 270 33C238.923 64.0787 219.932 107.468 224.17 152C225.268 163.538 227.373 174.886 230.721 186C233.722 195.96 238.497 204.402 235.226 215C231.792 226.127 221.742 234.674 214.086 243C201.944 256.203 190.228 269.797 178.086 283C134.122 330.806 90.6317 379.253 47.7145 428C36.135 441.153 14.6366 457.09 9.22377 474C4.55084 488.599 15.3668 504.249 31 503.946C42.6703 503.72 51.0355 494.396 59 486.975C73.4312 473.53 88.1953 460.32 103 447.285C144.353 410.878 185.048 373.688 226 336.831C246.449 318.426 266.734 294.667 290 279.965C306.776 269.365 325.82 282.471 343 285.576C369.771 290.413 397.405 288.431 423 279.047C449.318 269.398 468.467 252.533 488 233C497.698 223.302 508.642 212.763 501.811 198C495.019 183.322 476.828 183.71 466 193.185C451.481 205.89 440.919 221.482 424 231.547C383.91 255.397 334.343 247.984 300.001 217.714C261.281 183.585 256.299 123.866 284.52 82C295.116 66.2807 317.002 55.4576 324.069 38C330.451 22.2372 317.125 4.80972 300 8.51852z"/>
<path style="fill:#688e61; stroke:none;" d="M296 9L297 10L296 9M323 19L324 20L323 19z"/>
<path style="fill:#5ccea8; stroke:none;" d="M367 35.4244C341.121 38.7806 318.298 45.0429 299.17 64.1698C242.605 120.73 264.875 220.305 344 241.989C356.844 245.509 371.764 246.339 385 244.714C435.368 238.528 474.75 195.469 476.961 145C479.466 87.8014 427.488 27.5797 367 35.4244z"/>
<path style="fill:#0af6f6; stroke:none;" d="M375 35L376 36L375 35M414 44L415 45L414 44z"/>
<path style="fill:#010101; stroke:none;" d="M312 52L313 53L312 52z"/>
<path style="fill:#0af6f6; stroke:none;" d="M313 52L314 53L313 52z"/>
<path style="fill:#010101; stroke:none;" d="M311 53L312 54L311 53M310 54L311 55L310 54z"/>
<path style="fill:#688e61; stroke:none;" d="M304 59L305 60L304 59M303 60L304 61L303 60M302 61L303 62L302 61M296 67L297 68L296 67M295 68L296 69L295 68M294 69L295 70L294 69M293 70L294 71L293 70M292 71L293 72L292 71M291 72L292 73L291 72z"/>
<path style="fill:#0af6f6; stroke:none;" d="M453 74L454 75L453 74z"/>
<path style="fill:#688e61; stroke:none;" d="M288 76L289 77L288 76M287 77L288 78L287 77M285 80L286 81L285 80M284 81L285 82L284 81M283 83L284 84L283 83M281 86L282 87L281 86M280 88L281 89L280 88M278 91L279 92L278 91M277 93L278 94L277 93M276 95L277 96L276 95M275.333 97.6667L275.667 98.3333L275.333 97.6667M274 100L275 101L274 100M273 102L274 103L273 102M272 105L273 106L272 105z"/>
<path style="fill:#0af6f6; stroke:none;" d="M471 107L472 108L471 107z"/>
<path style="fill:#688e61; stroke:none;" d="M271 108L272 109L271 108M270.333 111.667L270.667 112.333L270.333 111.667M269.333 114.667L269.667 115.333L269.333 114.667M268.333 119.667L268.667 120.333L268.333 119.667M267 124L267 127L268 127L267 124M266 132L266 150L267 150L266 132M267 154L267 158L268 158L267 154M268.333 161.667L268.667 162.333L268.333 161.667M269.333 165.667L269.667 166.333L269.333 165.667M270.333 169.667L270.667 170.333L270.333 169.667M271 173L272 174L271 173M272.333 175.667L272.667 176.333L272.333 175.667M228 177L229 178L228 177M273 178L274 179L273 178M274 181L275 182L274 181M275 183L276 184L275 183M276 185L277 186L276 185M277 187L278 188L277 187M278 189L279 190L278 189z"/>
<path style="fill:#0af6f6; stroke:none;" d="M464 190L465 191L464 190z"/>
<path style="fill:#688e61; stroke:none;" d="M279 191L280 192L279 191M280 193L281 194L280 193M281 195L282 196L281 195M282 196L283 197L282 196M283 198L284 199L283 198M284 199L285 200L284 199z"/>
<path style="fill:#010101; stroke:none;" d="M459 199L460 200L459 199M458 200L459 201L458 200z"/>
<path style="fill:#688e61; stroke:none;" d="M285 201L286 202L285 201M286 202L287 203L286 202M288 205L289 206L288 205M454 205L455 206L454 205M289 206L290 207L289 206M453 206L454 207L453 206M290 207L291 208L290 207M293 211L294 212L293 211M294 212L295 213L294 212M295 213L296 214L295 213M296 214L297 215L296 214M297 215L298 216L297 215M298 216L299 217L298 216M299 217L300 218L299 217M300 218L301 219L300 218M440 219L441 220L440 219M439 220L440 221L439 220M304 221L305 222L304 221M438 221L439 222L438 221M305 222L306 223L305 222M437 222L438 223L437 222M306 223L307 224L306 223M434 224L435 225L434 224M309 225L310 226L309 225M433 225L434 226L433 225M310 226L311 227L310 226M312 227L313 228L312 227M430 227L431 228L430 227M313 228L314 229L313 228M315 229L316 230L315 229M427 229L428 230L427 229M316 230L317 231L316 230M425 230L426 231L425 230M318 231L319 232L318 231M424 231L425 232L424 231M320 232L321 233L320 232M422 232L423 233L422 232M322 233L323 234L322 233M420 233L421 234L420 233M324 234L325 235L324 234M418 234L419 235L418 234M326 235L327 236L326 235M416 235L417 236L416 235M328 236L329 237L328 236M414 236L415 237L414 236M330 237L331 238L330 237M412 237L413 238L412 237M332.667 238.333L333.333 238.667L332.667 238.333M409 238L410 239L409 238M335 239L336 240L335 239M406.667 239.333L407.333 239.667L406.667 239.333M338 240L339 241L338 240M404 240L405 241L404 240M341.667 241.333L342.333 241.667L341.667 241.333M400.667 241.333L401.333 241.667L400.667 241.333M344.667 242.333L345.333 242.667L344.667 242.333M396.667 242.333L397.333 242.667L396.667 242.333M349.667 243.333L350.333 243.667L349.667 243.333M392.667 243.333L393.333 243.667L392.667 243.333M354 244L354 245L357 245L354 244M386 244L386 245L389 245L386 244M361 245L361 246L382 246L361 245M421 279L422 280L421 279M288 280L289 281L288 280M123 428L124 429L123 428M113 437L114 438L113 437M103 446L104 447L103 446M93 455L94 456L93 455M83 464L84 465L83 464M73 473L74 474L73 473M63 482L64 483L63 482M53 491L54 492L53 491M11 493L12 494L11 493M18 500L19 501L18 500M22 502L23 503L22 502z"/>
</svg>
