<?xml version="1.0" standalone="yes"?>
<svg xmlns="http://www.w3.org/2000/svg" width="512" height="512">
<path style="fill:#010101; stroke:none;" d="M0 0L0 512L512 512L512 0L0 0z"/>
<path style="fill:#cd4d61; stroke:none;" d="M229 8.53317C208.125 13.6071 218.61 40.0535 220.92 54C223.219 67.8793 222.665 92.6933 231.419 103.985C238.901 113.635 260.041 112.979 271 110.316C281.014 107.882 283.587 98.9475 285.08 90C287.791 73.7523 289.633 57.0492 293.336 41C295.095 33.3752 298.14 24.4023 293.91 17.0008C291.577 12.918 287.594 9.6499 283 8.53317C269.267 5.19522 242.733 5.19522 229 8.53317z"/>
<path style="fill:#e3ad4d; stroke:none;" d="M217 37C188.423 47.7213 162.247 54.4764 137 73.1551C125.193 81.8903 114.061 92.5989 104.804 104C45.4684 177.08 59 271.992 59 360L59 466C59 481.992 60.6072 498.504 79 503.239C87.3755 505.396 97.3949 504 106 504L158 504C168.54 504 179.382 505.077 187.96 497.671C198.883 488.239 196 474.788 196 462L196 378C196 368.522 199.43 350.964 195.397 342.39C192.93 337.148 181.004 334.352 176 332.14C160.994 325.505 133.728 318.999 123.394 305.985C119.674 301.299 119.073 294.793 119.004 289C118.837 274.963 114.088 248.758 126.174 238.709C137.903 228.958 163.676 239.914 177 242.79C192.817 246.204 229.58 247.034 236.517 264C240.547 273.857 236.493 287.644 236.039 298C234.779 326.777 230.265 356.224 231.015 385C231.323 396.858 244.05 419.794 258 417.782C264.98 416.776 268.762 410.177 272.626 405C286.104 386.941 280.184 361.168 278.17 340C276.418 321.591 275.217 302.488 274.996 284C274.91 276.821 272.664 269.866 275.92 263C280.371 253.61 289.943 252.565 299 250.576C316.978 246.627 334.975 242.729 353 238.997C361.038 237.333 370.765 233.443 379 235.293C398.561 239.687 393.001 270.49 393 285C393 291.159 393.277 298.521 389.991 303.999C385.953 310.73 378.747 313.153 372 316.231C359.745 321.822 347.353 327.202 335 332.576C329.813 334.832 321.591 336.853 317.603 340.966C315.063 343.586 316 348.672 316 352L316 381L316 451C316 460.946 314.321 472.234 315.655 482C317.183 493.185 325.885 501.818 337 503.674C361.624 507.788 390.013 504 415 504C426.204 504 437.384 504.76 445.815 495.907C455.465 485.773 453 469.813 453 457L453 365C453 278.908 467.816 179.48 408.916 108C396.24 92.6171 382.227 79.7103 366 68.1412C346.668 54.3584 318.266 39.058 294 38C292.131 52.7136 289.192 67.3669 286.753 82C285.621 88.7905 285.454 97.2035 281.348 102.985C272.524 115.412 239.59 115.359 230.803 102.985C218.224 85.2707 226.266 56.2822 217 37z"/>
<path style="fill:#c99541; stroke:none;" d="M294 37L295 38L294 37M218 39L218 42L219 42L218 39M293 39L293 42L294 42L293 39M306 40L307 41L306 40z"/>
<path style="fill:#ffff01; stroke:none;" d="M188 45L189 46L188 45z"/>
<path style="fill:#c99541; stroke:none;" d="M219 45L219 48L220 48L219 45M292 45L292 48L293 48L292 45M329 48L330 49L329 48M220 51L220 54L221 54L220 51M291 51L291 54L292 54L291 51z"/>
<path style="fill:#ffff01; stroke:none;" d="M338 52L339 53L338 52z"/>
<path style="fill:#c99541; stroke:none;" d="M342 54L343 55L342 54z"/>
<path style="fill:#ffff01; stroke:none;" d="M346 56L347 57L346 56z"/>
<path style="fill:#c99541; stroke:none;" d="M221 57L221 60L222 60L221 57M290 57L290 60L291 60L290 57M222 63L222 66L223 66L222 63M289 63L289 66L290 66L289 63z"/>
<path style="fill:#ffff01; stroke:none;" d="M142 69L143 70L142 69z"/>
<path style="fill:#c99541; stroke:none;" d="M223 69L223 72L224 72L223 69M288 69L288 72L289 72L288 69M367 69L368 70L367 69M224 75L224 78L225 78L224 75M287 75L287 78L288 78L287 75M225 81L225 84L226 84L225 81M286 81L286 84L287 84L286 81z"/>
<path style="fill:#ffff01; stroke:none;" d="M387 85L388 86L387 85M120 87L121 88L120 87z"/>
<path style="fill:#c99541; stroke:none;" d="M226 87L226 90L227 90L226 87M285 87L285 90L286 90L285 87z"/>
<path style="fill:#ffff01; stroke:none;" d="M119 88L120 89L119 88z"/>
<path style="fill:#c99541; stroke:none;" d="M118 89L119 90L118 89z"/>
<path style="fill:#ffff01; stroke:none;" d="M117 90L118 91L117 90z"/>
<path style="fill:#c99541; stroke:none;" d="M114 93L115 94L114 93M227 93L227 96L228 96L227 93M284 93L284 96L285 96L284 93M228.333 98.6667L228.667 99.3333L228.333 98.6667M283.333 98.6667L283.667 99.3333L283.333 98.6667M229 101L230 102L229 101M282 101L283 102L282 101z"/>
<path style="fill:#ffff01; stroke:none;" d="M105 103L106 104L105 103z"/>
<path style="fill:#c99541; stroke:none;" d="M281 103L282 104L281 103M231 104L232 105L231 104M280 104L281 105L280 104M232 105L233 106L232 105M279 105L280 106L279 105M406 105L407 106L406 105M233 106L234 107L233 106M278 106L279 107L278 106M234 107L235 108L234 107M277 107L278 108L277 107M101 108L102 109L101 108M237 109L238 110L237 109M274 109L275 110L274 109M240.667 110.333L241.333 110.667L240.667 110.333M270.667 110.333L271.333 110.667L270.667 110.333z"/>
<path style="fill:#ffff01; stroke:none;" d="M420 124L421 125L420 124M436 154L437 155L436 154M70 164L71 165L70 164M440 164L441 165L440 164z"/>
<path style="fill:#c99541; stroke:none;" d="M69 167L70 168L69 167M63 189L64 190L63 189z"/>
<path style="fill:#ffff01; stroke:none;" d="M448 192L449 193L448 192z"/>
<path style="fill:#c99541; stroke:none;" d="M62 194L63 195L62 194z"/>
<path style="fill:#ffff01; stroke:none;" d="M61 200L62 201L61 200z"/>
<path style="fill:#c99541; stroke:none;" d="M60 208L61 209L60 208M451 211L452 212L451 211M452 224L453 225L452 224M196 478L316 478L316 380C316 370.88 312.102 350.111 317.028 342.39C320.089 337.592 329.974 335.17 335 333C353.857 324.859 391.267 316.863 392.91 293C393.864 279.152 397.995 248.844 386.671 238.709C379.365 232.17 369.482 235.247 361 237.003C340.987 241.147 320.917 245.303 301 249.881C293.174 251.68 282.845 252.057 277.649 259.044C270.436 268.742 274.765 286.809 275.83 298C278.429 325.306 280.358 353.584 280.985 381C281.255 392.783 270.112 417.79 256 417.79C241.888 417.79 230.745 392.783 231.015 381C231.65 353.267 233.541 324.62 236.17 297C237.22 285.968 241.481 268.631 234.351 259.044C229.128 252.021 217.977 251.206 210 249.6C190.285 245.632 170.692 241.08 151 237.003C142.306 235.203 132.832 232.122 125.304 238.709C113.973 248.623 118.144 279.277 119.09 293C120.724 316.741 158.191 324.88 177 333C182.026 335.17 191.911 337.592 194.972 342.39C199.898 350.112 196 370.88 196 380L196 478M59 481L60 482L59 481M196 481L197 482L196 481M315 481L316 482L315 481M452 481L453 482L452 481z"/>
<path style="fill:#ffff01; stroke:none;" d="M70 499L71 500L70 499M185 499L186 500L185 499M326 499L327 500L326 499M441 499L442 500L441 499M76 502L77 503L76 502M332 502L333 503L332 502z"/>
</svg>
