<?xml version="1.0" standalone="yes"?>
<svg xmlns="http://www.w3.org/2000/svg" width="512" height="512">
<path style="fill:#080504; stroke:none;" d="M0 0L0 512L512 512L512 0L0 0z"/>
<path style="fill:#754b3e; stroke:none;" d="M25 94L60 94C60 82.2658 57.5214 67.388 60.3171 56C62.6771 46.3869 70.5402 41.2147 68.5355 30C64.1851 5.66272 29.4269 -0.434387 18.9051 23C12.8032 36.5903 21.8352 43.9786 24.686 56C27.4057 67.4691 25 82.2058 25 94M452 94L487 94C487 82.2058 484.594 67.4691 487.314 56C490.165 43.9774 499.195 36.5916 493.095 23C482.585 -0.416138 447.822 5.62546 443.465 30C441.46 41.2147 449.323 46.3869 451.683 56C454.479 67.388 452 82.2658 452 94z"/>
<path style="fill:#c7ab83; stroke:none;" d="M23 93L24 94L23 93z"/>
<path style="fill:#a48b69; stroke:none;" d="M188 94C176.593 94 165.305 91.9948 155 97.8727C145.99 103.012 131.634 118.691 121 118.547C108.792 118.382 112.436 97.315 100 94.1482C93.7049 92.545 85.5146 94 79 94C63.6672 94 48.3327 94.0672 33 93.9992C24.7036 93.9624 16.1147 93.2848 10.9159 101.326C6.31305 108.445 8 118.951 8 127L8 186L8 244C8 248.381 5.84941 260.999 9.6034 263.972C12.9999 266.662 21.8748 265 26 265C41.5075 265 63.0783 268.261 72.8665 252.996C80.4042 241.241 75.8402 227.282 86.1852 216.04C97.8287 203.387 113.483 209.166 125.985 200.2C139.114 190.784 133.276 174.054 143.185 163.015C153.036 152.041 166.98 156.476 177.96 148.211C193.091 136.822 188 110.479 188 94z"/>
<path style="fill:#c7ab83; stroke:none;" d="M60 93L60 94L97 94C87.2021 89.8887 70.6488 93 60 93M170 93L170 94L188 94C188 111.572 192.993 137.466 175.996 148.895C165.058 156.25 151.577 152.05 142.329 163.015C132.71 174.42 138.715 190.499 124.996 200.2C113.687 208.197 99.2388 203.618 88.0401 213.329C75.3079 224.369 80.8744 239.417 72.8665 251.999C61.8331 269.335 25.8312 268.245 8 264L8 372C8 383.717 4.19445 403.372 12.3935 412.895C18.2512 419.698 26.0906 418.013 34 418C50.0575 417.974 65.951 419 82 419C88.6645 419 96.9227 420.208 102.996 416.86C111.666 412.081 109.967 393.589 121 393.453C126.177 393.389 131.919 398.946 136 401.667C146.376 408.584 156.262 417.144 169 418.714C185.42 420.737 214.919 423.207 230 415.861C239.244 411.358 245.334 393.427 256 393.427C266.919 393.427 273.115 412.016 283 416.316C299.438 423.466 324.368 419 342 419L342 418L316 418C319.51 399.899 321.302 373.583 333.329 359C339.782 351.175 348.029 345.048 358 342.676C367.872 340.328 377.766 341.617 387 336.676C401.573 328.879 406.954 314.221 418.015 303.004C426.743 294.151 438.857 289.967 447.242 280.829C457.909 269.206 457.643 253.806 463.465 240C470.426 223.488 486.766 214.362 504 213L504 131C504 120.799 506.744 106.16 498.786 98.2137C492.699 92.1356 484.706 93.997 477 94C461.277 94.006 445.717 93 430 93C423.336 93 415.077 91.7915 409.004 95.1396C400.334 99.9193 402.033 118.411 391 118.547C385.823 118.611 380.081 113.054 376 110.333C365.624 103.416 355.738 94.8557 343 93.2863C326.58 91.2634 297.081 88.7926 282 96.1389C272.756 100.642 266.666 118.573 256 118.573C245.081 118.573 238.885 99.9844 229 95.6844C212.562 88.5341 187.632 93 170 93M19 94L20 95L19 94M101 94L102 95L101 94M17 95L18 96L17 95z"/>
<path style="fill:#ffff01; stroke:none;" d="M159 95L160 96L159 95M228 95L229 96L228 95M283 95L284 96L283 95M352 95L353 96L352 95z"/>
<path style="fill:#c7ab83; stroke:none;" d="M15 96L16 97L15 96M157 96L158 97L157 96M14 97L15 98L14 97M12 99L13 100L12 99z"/>
<path style="fill:#ffff01; stroke:none;" d="M109 101L110 102L109 101M402 101L403 102L402 101z"/>
<path style="fill:#c7ab83; stroke:none;" d="M145 104L146 105L145 104M8 107L9 108L8 107M133 112L134 113L133 112M130 114L131 115L130 114z"/>
<path style="fill:#ffff01; stroke:none;" d="M247 114L248 115L247 114M264 114L265 115L264 114z"/>
<path style="fill:#c7ab83; stroke:none;" d="M118 118L119 119L118 118z"/>
<path style="fill:#ffff01; stroke:none;" d="M393 118L394 119L393 118z"/>
<path style="fill:#a48b69; stroke:none;" d="M363 171L364 172L363 171z"/>
<path style="fill:#754b3e; stroke:none;" d="M372 196L372 197C367.592 200.105 361.509 204.759 359.604 210C357.515 215.748 361.517 222.437 368 221.512C374.444 220.592 378.027 211.056 384 211.056C390.019 211.056 393.395 220.586 400 221.278C406.161 221.923 410.338 215.548 408.257 210C406.274 204.714 400.468 200.147 396 197C400.251 192.749 406.763 188.006 408.482 182C410.089 176.387 406.1 170.541 400 171.272C393.381 172.066 390.165 181.944 384 181.944C377.835 181.944 374.619 172.066 368 171.272C361.9 170.541 357.911 176.387 359.518 182C361.167 187.761 367.312 192.698 372 196z"/>
<path style="fill:#a48b69; stroke:none;" d="M370 171L371 172L370 171M397 171L398 172L397 171M404 171L405 172L404 171M372 172L373 173L372 172M395 172L396 173L395 172M360 173L361 174L360 173M373 173L374 174L373 173M394 173L395 174L394 173M407 173L408 174L407 173M374 174L375 175L374 174M393 174L394 175L393 174M359 175L360 176L359 175M375 175L376 176L375 175M392 175L393 176L392 175M408 175L409 176L408 175M376 176L377 177L376 176M391 176L392 177L391 176M358 177L358 181L359 181L358 177M377 177L378 178L377 177M390 177L391 178L390 177M409 177L409 181L410 181L409 177M378 178L379 179L378 178M389 178L390 179L389 178M379 179L380 180L379 179M388 179L389 180L388 179M380 180L381 181L380 180M387 180L388 181L387 180M381 181L382 182L381 181M386 181L387 182L386 181M382 182L383 183L382 182M385 182L386 183L385 182M359 183L360 184L359 183M383.667 183.333L384.333 183.667L383.667 183.333M408 183L409 184L408 183M360 184L361 185L360 184M407 184L408 185L407 184M371 196L372 197L371 196M396 196L397 197L396 196M370 197L371 198L370 197M397 197L398 198L397 197M369 198L370 199L369 198M398 198L399 199L398 198M368 199L369 200L368 199M399 199L400 200L399 199M367 200L368 201L367 200M400 200L401 201L400 200M366 201L367 202L366 201M401 201L402 202L401 201M365 202L366 203L365 202M402 202L403 203L402 202M364 203L365 204L364 203M403 203L404 204L403 203M363 204L364 205L363 204M404 204L405 205L404 204M362 205L363 206L362 205M405 205L406 206L405 205M361 206L362 207L361 206M406 206L407 207L406 206M360 207L361 208L360 207M407 207L408 208L407 207M408 209L409 210L408 209M358 211L358 216L359 216L358 211M409 211L409 215L410 215L409 211M316 418C327.676 418 343.293 420.949 354 415.726C362.759 411.453 370.999 405.134 379 399.586C382.332 397.276 386.697 393.395 391 393.453C402.211 393.605 400.036 412.092 409.004 416.696C414.97 419.758 423.5 418 430 418L477 418C484.588 418.003 492.642 419.729 498.521 413.671C509.418 402.44 504 374.538 504 360L504 213C486.876 213.735 470.349 222.671 463.465 239C457.603 252.903 457.766 268.062 447.242 279.91C438.973 289.222 426.776 293.254 418.015 302.015C407.404 312.625 402.088 326.533 389 334.91C376.323 343.024 361.215 339.358 348 345.971C323.612 358.174 319.161 393.525 316 418M359 217L360 218L359 217M408 217L409 218L408 217M407 218L408 219L407 218M360 219L361 220L360 219M406 219L407 220L406 219M371 220L372 221L371 220M396 220L397 221L396 220M405 220L406 221L405 220M363.667 221.333L364.333 221.667L363.667 221.333M369 221L370 222L369 221M398.667 221.333L399.333 221.667L398.667 221.333M402.667 221.333L403.333 221.667L402.667 221.333M117 230L117 231L131 231L117 230M160 230L160 231L173 231L160 230M202 230L202 231L216 231L202 230M339 230L339 231L343 231L339 230M115 231L116 232L115 231z"/>
<path style="fill:#754b3e; stroke:none;" d="M116.055 231.742C110.744 233.936 109.732 241.714 114.279 245.258C117.832 248.028 126.931 247.875 130.981 246.258C136.495 244.056 137.713 236.238 132.852 232.603C129.317 229.961 120.033 230.099 116.055 231.742z"/>
<path style="fill:#a48b69; stroke:none;" d="M132 231L133 232L132 231M157 231L155 234L157 231z"/>
<path style="fill:#754b3e; stroke:none;" d="M158.109 232.028C153.356 234.703 152.889 241.978 157.228 245.258C160.938 248.062 170.899 248.068 174.891 245.821C179.629 243.154 180.125 236.033 175.772 232.742C172.177 230.025 162.006 229.834 158.109 232.028z"/>
<path style="fill:#a48b69; stroke:none;" d="M174 231L175 232L174 231M200 231L201 232L200 231z"/>
<path style="fill:#754b3e; stroke:none;" d="M201.109 231.742C195.868 233.996 195.866 242.196 200.148 245.397C203.682 248.038 212.966 247.922 216.892 246.142C222.031 243.812 223.029 236.299 218.606 232.742C215.096 229.92 205.129 230.013 201.109 231.742z"/>
<path style="fill:#a48b69; stroke:none;" d="M217 231L218 232L217 231M337 231L338 232L337 231z"/>
<path style="fill:#754b3e; stroke:none;" d="M338 231.743C332.984 233.625 325.784 240.546 324.909 246C323.889 252.359 330.076 257.217 336 254.976C341.257 252.987 347.835 246.597 349.102 241C350.566 234.53 343.99 229.496 338 231.743z"/>
<path style="fill:#a48b69; stroke:none;" d="M345 231L346 232L345 231M113 232L114 233L113 232M133 232L134 233L133 232M176 232L177 233L176 232M335 232L336 233L335 232M346 232L347 233L346 232M134 233L135 234L134 233M177 233L178 234L177 233M334 233L335 234L334 233M347 233L348 234L347 233M135 234L136 235L135 234M197 234L198 235L197 234M220 234L221 235L220 234M333 234L334 235L333 234M348 234L349 235L348 234M111.333 235.667L111.667 236.333L111.333 235.667M154 235L155 236L154 235M178 235L179 236L178 235M332 235L333 236L332 235M196 236L196 242L197 242L196 236M221 236L222 237L221 236M331 236L332 237L331 236M349.333 236.667L349.667 237.333L349.333 236.667M136 237L136 241L137 241L136 237M153 237L153 241L154 241L153 237M330 237L331 238L330 237M329 238L330 239L329 238M328 239L329 240L328 239M221.333 240.667L221.667 241.333L221.333 240.667M327 240L328 241L327 240M349.333 240.667L349.667 241.333L349.333 240.667M111.333 241.667L111.667 242.333L111.333 241.667M326 241L327 242L326 241M154 242L155 243L154 242M178 242L179 243L178 242M135 243L136 244L135 243M197 243L198 244L197 243M220 243L221 244L220 243M348 243L349 244L348 243M134 244L135 245L134 244M155 244L156 245L155 244M198 244L199 245L198 244M324 244L324 247L325 247L324 244M133 245L134 246L133 245M156 245L157 246L156 245M176 245L177 246L176 245M199 245L200 246L199 245M218 245L219 246L218 245M115 246L116 247L115 246M131 246L132 247L131 246M158 246L159 247L158 246M174 246L175 247L174 246M200 246L201 247L200 246M217 246L218 247L217 246M117 247L117 248L130 248L117 247M160 247L160 248L173 248L160 247M203 247L203 248L215 248L203 247M324.333 248.667L324.667 249.333L324.333 248.667M325 251L326 252L325 251M326 253L327 254L326 253M337 254L338 255L337 254M329.667 255.333L330.333 255.667L329.667 255.333M335 255L336 256L335 255M227 256L228 257L227 256z"/>
<path style="fill:#754b3e; stroke:none;" d="M228.015 256.758C217.343 260.621 220.386 285.911 233.895 280.257C243.256 276.339 240.059 252.398 228.015 256.758z"/>
<path style="fill:#a48b69; stroke:none;" d="M233 256L234 257L233 256M225 257L226 258L225 257M235 257L236 258L235 257M224 258L225 259L224 258M236 258L237 259L236 258M223 259L224 260L223 259M237 259L238 260L237 259M222 261L223 262L222 261M238.333 261.667L238.667 262.333L238.333 261.667M314 264L314 265L318 265L314 264M311 265L308 269L311 265z"/>
<path style="fill:#754b3e; stroke:none;" d="M312.055 266.029C302.142 271.331 307.241 295.76 319.811 288.542C328.483 283.563 324.52 259.36 312.055 266.029z"/>
<path style="fill:#a48b69; stroke:none;" d="M319 265L320 266L319 265M321 266L322 267L321 266M322 267L323 268L322 267M323 269L324 270L323 269M307.333 270.667L307.667 271.333L307.333 270.667M324 272L324 282L325 282L324 272M238.333 275.667L238.667 276.333L238.333 275.667M222 276L223 277L222 276M237 277L238 278L237 277M224 279L225 280L224 279M226 280L227 281L226 280M234 280L235 281L234 280M228 281L228 282L233 282L228 281M307.333 283.667L307.667 284.333L307.333 283.667M323 285L324 286L323 285M308 286L309 287L308 286M322 286L323 287L322 286M309 287L310 288L309 287M310 288L311 289L310 288M320 288L321 289L320 288M312 289L313 290L312 289M318.667 289.333L319.333 289.667L318.667 289.333M229 298L229 299L232 299L229 298M226 299L227 300L226 299z"/>
<path style="fill:#754b3e; stroke:none;" d="M227.105 299.743C216.317 304.239 224.203 328.039 235.956 323.138C246.22 318.858 238.583 294.96 227.105 299.743z"/>
<path style="fill:#a48b69; stroke:none;" d="M234 299L235 300L234 299M235 300L236 301L235 300M236 301L237 302L236 301M223 302L224 303L223 302M237 302L238 303L237 302M222.333 303.667L222.667 304.333L222.333 303.667M238 304L239 305L238 304M311 307L311 308L316 308L311 307M309 308L310 309L309 308z"/>
<path style="fill:#754b3e; stroke:none;" d="M310.015 308.742C298.333 313.196 295.756 335.234 311 329.141C322.137 324.689 324.936 303.053 310.015 308.742z"/>
<path style="fill:#a48b69; stroke:none;" d="M317 308L318 309L317 308M239.333 309.667L239.667 310.333L239.333 309.667M307 309L308 310L307 309M306 310L307 311L306 310M320 311L321 312L320 311M222.333 312.667L222.667 313.333L222.333 312.667M240 312L241 313L240 312M304 313L305 314L304 313M321.333 313.667L321.667 314.333L321.333 313.667M223.333 315.667L223.667 316.333L223.333 315.667M241 315L242 316L241 315M264 315L264 316L274 316L264 315M301 315L302 316L301 315M259 318L262 317L259 318z"/>
<path style="fill:#754b3e; stroke:none;" d="M262.043 316.653C256.139 318.617 254.425 326.302 259.279 330.436C263.075 333.669 270.468 333.658 274.985 332.196C281.094 330.219 283.286 321.909 277.772 317.742C274.188 315.034 266.144 315.288 262.043 316.653z"/>
<path style="fill:#a48b69; stroke:none;" d="M276 316L277 317L276 316M300 316L301 317L300 316M278 317L279 318L278 317M321.333 317.667L321.667 318.333L321.333 317.667M224 318L225 319L224 318M279 318L280 319L279 318M299 318L300 319L299 318M240 319L241 320L240 319M257 319L258 320L257 319M225 320L226 321L225 320M280 320L281 321L280 320M298 320L298 323L299 323L298 320M320 320L321 321L320 320M226 321L227 322L226 321M256 321L257 322L256 321M227 322L228 323L227 322M237 322L238 323L237 322M281 322L281 327L282 327L281 322M319 322L320 323L319 322M229 323L230 324L229 323M236 323L237 324L236 323M318 323L319 324L318 323M232 324L233 325L232 324M317 324L318 325L317 324M299 325L300 326L299 325M316 325L317 326L316 325M256.333 326.667L256.667 327.333L256.333 326.667M315 326L316 327L315 326M300 327L301 328L300 327M314 327L315 328L314 327M280 328L281 329L280 328M301 328L302 329L301 328M312 328L313 329L312 328M257 329L258 330L257 329M303 329L304 330L303 329M311 329L312 330L311 329M258 330L259 331L258 330M305 330L305 331L309 331L305 330M277 331L278 332L277 331M261 332L261 333L264 333L261 332M274.667 332.333L275.333 332.667L274.667 332.333z"/>
<path style="fill:#c7ab83; stroke:none;" d="M393 393L394 394L393 393z"/>
<path style="fill:#ffff01; stroke:none;" d="M247 397L248 398L247 397M264 397L265 398L264 397z"/>
<path style="fill:#c7ab83; stroke:none;" d="M381 397L382 398L381 397M366 407L367 408L366 407M502 407L503 408L502 407z"/>
<path style="fill:#ffff01; stroke:none;" d="M402 410L403 411L402 410z"/>
<path style="fill:#c7ab83; stroke:none;" d="M500 411L501 412L500 411M499 412L500 413L499 412M354 415L355 416L354 415M496 415L497 416L496 415z"/>
<path style="fill:#ffff01; stroke:none;" d="M283 416L284 417L283 416M352 416L353 417L352 416z"/>
<path style="fill:#c7ab83; stroke:none;" d="M410 417L411 418L410 417z"/>
<path style="fill:#754b3e; stroke:none;" d="M25 418C25 429.794 27.4057 444.531 24.686 456C21.8352 468.021 12.8032 475.41 18.9051 489C29.4269 512.434 64.1851 506.337 68.5355 482C70.5402 470.785 62.6771 465.613 60.3171 456C57.5214 444.612 60 429.734 60 418L25 418z"/>
<path style="fill:#c7ab83; stroke:none;" d="M343 418L344 419L343 418M414 418L415 419L414 418M416 418L416 419L452 419C442.44 414.989 426.387 418 416 418z"/>
<path style="fill:#754b3e; stroke:none;" d="M452 418C452 429.734 454.479 444.612 451.683 456C449.323 465.613 441.46 470.785 443.465 482C447.815 506.341 482.586 512.414 493.095 489C499.195 475.408 490.165 468.023 487.314 456C484.594 444.531 487 429.794 487 418L452 418z"/>
<path style="fill:#c7ab83; stroke:none;" d="M488 418L489 419L488 418z"/>
</svg>
