<?xml version="1.0" standalone="yes"?>
<svg xmlns="http://www.w3.org/2000/svg" width="512" height="512">
<path style="fill:#382318; stroke:none;" d="M0 0L0 512L512 512L512 0L0 0z"/>
<path style="fill:#c99541; stroke:none;" d="M61 8L61 9L66 9L61 8z"/>
<path style="fill:#6d4733; stroke:none;" d="M51 213L216 212.96L259 205L296 212.96L461 213L461 65L461 26C461 22.2544 462.404 14.8521 459.972 11.7276C456.344 7.06595 442.343 8.00204 437 8L372 8L132 8C112.334 8 92.6656 7.90594 73 8.00076C68.0644 8.02457 55.3562 7.45062 52.0278 11.7276C49.5963 14.852 51 22.2544 51 26L51 65L51 213z"/>
<path style="fill:#c99541; stroke:none;" d="M446 8L446 9L451 9L446 8M55.6667 9.33334L56.3333 9.66666L55.6667 9.33334M455.667 9.33334L456.333 9.66666L455.667 9.33334M51.6667 10.3333L52.3333 10.6667L51.6667 10.3333M459.667 10.3333L460.333 10.6667L459.667 10.3333z"/>
<path style="fill:#e3ad4d; stroke:none;" d="M8 213L51 213L51 11C30.203 14.1174 13.4715 35.3318 9.44985 55C5.78672 72.9147 8 92.7718 8 111L8 213M461 11L461 213L504 213L504 111C504 92.7742 506.218 72.9115 502.55 55C498.523 35.3339 481.787 14.1158 461 11z"/>
<path style="fill:#c99541; stroke:none;" d="M480 20L481 21L480 20M20 31L21 32L20 31M499 45L500 46L499 45M244 205L244 206L249 206L244 205z"/>
<path style="fill:#e3ad4d; stroke:none;" d="M249 205.424C227.222 208.319 207.142 216.236 192.174 233C142.05 289.136 189.04 384.043 265 374.714C278.88 373.009 292.374 368.313 304 360.48C363.175 320.611 347.116 224.241 277 207.654C268.027 205.532 258.187 204.203 249 205.424z"/>
<path style="fill:#c99541; stroke:none;" d="M263 205L263 206L268 206L263 205M238 206L238 207L241 207L238 206M271 206L271 207L274 207L271 206M234.667 207.333L235.333 207.667L234.667 207.333M276.667 207.333L277.333 207.667L276.667 207.333M231 208L232 209L231 208M280 208L281 209L280 208M228 209L229 210L228 209M283 209L284 210L283 209M225 210L226 211L225 210M286 210L287 211L286 210M223 211L224 212L223 211M288 211L289 212L288 211M220.667 212.333L221.333 212.667L220.667 212.333M291 212L292 213L291 212M8 213L8 250L9.02778 263.397L20 265L51 265L133 265L175 266C178.286 244.061 199.169 222.3 219 214L199 213L156 213L8 213M293 213L293 214C312.823 221.257 333.823 244.788 337 266L379 265L461 265L492 265L502.972 263.397L504 250L504 213L293 213M251 256.468C236.029 259.296 227.462 274.686 231.493 289C232.953 294.185 237.464 297.877 238.686 303C241.55 315.013 238.164 336.563 259 332.517C275.791 329.256 270.525 314.697 273.314 303C274.967 296.066 280.504 291.621 281.37 284C283.302 266.998 267.529 253.345 251 256.468z"/>
<path style="fill:#e3ad4d; stroke:none;" d="M8 264L8 412C8 437.309 4.93326 463.662 23.1736 483.999C48.7471 512.513 93.6406 504 128 504L387 504C421.504 504 464.417 511.965 489.815 483C507.052 463.342 504 437.196 504 413L504 264L461 265L461 400C461 416.113 465.734 440.08 453.674 452.816C445.493 461.456 434.918 461 424 461L372 461L145 461L88 461C76.694 461 65.5866 461.377 57.5185 451.907C46.3572 438.805 51 415.051 51 399L51 265L8 264z"/>
<path style="fill:#6d4733; stroke:none;" d="M51 265L51 399C51 414.618 46.3392 439.231 57.3295 451.96C65.0661 460.92 76.0939 461 87 461L138 461L367 461L425 461C435.906 461 446.934 460.92 454.671 451.96C465.661 439.231 461 414.618 461 399L461 265L338 265C341.887 293.862 341.959 320.33 321.7 344C279.052 393.828 196.85 380.488 175.079 317C168.975 299.201 171.576 283.001 174 265L51 265z"/>
<path style="fill:#c99541; stroke:none;" d="M173.333 268.667L173.667 269.333L173.333 268.667M338.333 268.667L338.667 269.333L338.333 268.667M172 272L172 275L173 275L172 272M339 272L339 275L340 275L339 272M171 277L171 281L172 281L171 277M340 277L340 282L341 282L340 277M171 299L171 303L172 303L171 299M340 299L340 303L341 303L340 299M172.333 306.667L172.667 307.333L172.333 306.667M339.333 306.667L339.667 307.333L339.333 306.667M173.333 310.667L173.667 311.333L173.333 310.667M338.333 310.667L338.667 311.333L338.333 310.667M174.333 314.667L174.667 315.333L174.333 314.667M337 314L338 315L337 314M175.333 317.667L175.667 318.333L175.333 317.667M336 317L337 318L336 317M176 320L177 321L176 320M335 320L336 321L335 320M177 323L178 324L177 323M334 323L335 324L334 323M178 325L179 326L178 325M333 325L334 326L333 325M179 327L180 328L179 327M332 327L333 328L332 327M180 329L181 330L180 329M331 329L332 330L331 329M181 331L182 332L181 331M330 331L331 332L330 331M182 333L183 334L182 333M329 333L330 334L329 333M183 334L184 335L183 334M328 334L329 335L328 334M184 336L185 337L184 336M327 336L328 337L327 336M186 339L187 340L186 339M325 339L326 340L325 339M187 340L188 341L187 340M324 340L325 341L324 340M189 343L190 344L189 343M322 343L323 344L322 343M190 344L191 345L190 344M321 344L322 345L321 344M191 345L192 346L191 345M320 345L321 346L320 345M200 354L201 355L200 354M311 354L312 355L311 354M201 355L202 356L201 355M310 355L311 356L310 355M202 356L203 357L202 356M309 356L310 357L309 356M308 357L309 358L308 357M205 358L206 359L205 358M306 358L307 359L306 358M206 359L207 360L206 359M305 359L306 360L305 359M209 361L210 362L209 361M302 361L303 362L302 361M211 362L212 363L211 362M300 362L301 363L300 362M212 363L213 364L212 363M299 363L300 364L299 363M214 364L215 365L214 364M297 364L298 365L297 364M216 365L217 366L216 365M295 365L296 366L295 365M218 366L219 367L218 366M293 366L294 367L293 366M220 367L221 368L220 367M291 367L292 368L291 367M222 368L223 369L222 368M289 368L290 369L289 368M225 369L226 370L225 369M286 369L287 370L286 369M227.667 370.333L228.333 370.667L227.667 370.333M283.667 370.333L284.333 370.667L283.667 370.333M230.667 371.333L231.333 371.667L230.667 371.333M280.667 371.333L281.333 371.667L280.667 371.333M234 372L235 373L234 372M277 372L278 373L277 372M238.667 373.333L239.333 373.667L238.667 373.333M272.667 373.333L273.333 373.667L272.667 373.333M243 374L243 375L246 375L243 374M266 374L266 375L269 375L266 374M255.667 375.333L256.333 375.667L255.667 375.333M51 438L51 441L52 441L51 438M460 438L460 441L461 441L460 438M52 443L53 444L52 443M459 443L460 444L459 443M53 446L54 447L53 446M458 446L459 447L458 446M55 449L56 450L55 449M456 449L457 450L456 449M57 452L58 453L57 452M454 452L455 453L454 452M58 453L59 454L58 453M453 453L454 454L453 453M59 454L60 455L59 454M452 454L453 455L452 454M62 456L63 457L62 456M449 456L450 457L449 456M65 458L66 459L65 458M446 458L447 459L446 458M68 459L69 460L68 459M443 459L444 460L443 459M71 460L71 461L74 461L71 460M438 460L438 461L441 461L438 460M495 474L496 475L495 474M20 480L21 481L20 480z"/>
<path style="fill:#ffff01; stroke:none;" d="M31 491L32 492L31 491z"/>
<path style="fill:#c99541; stroke:none;" d="M480 491L481 492L480 491M37 495L38 496L37 495z"/>
</svg>
